# xmcd
#
# Track frame offsets:
#	150
#	26945
#	49275
#	66695
#	84770
#	110065
#	132265
#	137620
#	161270
#	180920
#	208305
#	228745
#	251170
#	270460
#
# Disc length: 3891 seconds
#
# Revision: 1
# Processed by: cddbd v1.5.1PL2 Copyright (c) Steve Scherf et al.
# Submitted via: EasyCDDAExtractor 8.0.2.1
#
DISCID=cf0f310e
DTITLE=Dio - 9:30 Club Washington DC 10-12-00 Disc 1
DYEAR=2000
DGENRE=Hard Rock
TTITLE0=Sunset Superman
TTITLE1=Invisible
TTITLE2=Drum Solo
TTITLE3=Stand Up And Shout
TTITLE4=Don't Talk To Strangers
TTITLE5=All The Fools Sailed Away
TTITLE6=Magica Theme
TTITLE7=Lord Of The Last Day
TTITLE8=Fever Dream
TTITLE9=Feed My Head
TTITLE10=Eriel
TTITLE11=Guitar Solo
TTITLE12=Challis
TTITLE13=Losing My Insanity
EXTD=
EXTT0=
EXTT1=
EXTT2=
EXTT3=
EXTT4=
EXTT5=
EXTT6=
EXTT7=
EXTT8=
EXTT9=
EXTT10=
EXTT11=
EXTT12=
EXTT13=
PLAYORDER=
